<svg width="394" height="370" viewBox="0 0 394 370" fill="none" xmlns="http://www.w3.org/2000/svg">
<g clip-path="url(#clip0_6_4)">
<path d="M395 209C395 212.031 395 215.061 394.78 218.199C393.46 219.31 392.164 220.167 391.291 221.339C374.038 244.505 356.721 267.625 339.762 291.005C337.631 293.943 335.519 294.295 332.759 293.955C317.178 292.034 301.625 289.882 286.035 288.042C273.168 286.524 260.247 285.454 247.384 283.906C243.986 283.498 240.713 282.055 237.055 280.991C234.036 286.047 230.724 292.039 226.964 297.735C224.366 301.67 221.55 305.982 216.034 305.907C212.548 305.86 210.802 307.54 208.908 310.115C197.776 325.248 186.381 340.188 175.255 355.325C171.562 360.349 168.403 365.764 165 371C161.307 371 157.614 371 153.745 370.632C146.199 369.175 138.848 367.95 131.458 367.03C121.868 365.836 112.239 364.952 102.641 363.811C92.5767 362.615 82.5559 360.697 72.4639 360.237C67.3256 360.003 64.9898 358.039 63.3638 353.832C62.3684 351.256 61.16 348.763 60.0699 346.223C49.8916 322.508 39.8047 298.752 29.4566 275.11C27.7625 271.24 27.5661 268.07 30.0942 264.667C45.6343 243.746 61.1536 222.809 76.6294 201.84C79.2123 198.34 82.4599 194.965 83.7933 190.992C85.9901 184.447 86.8751 177.462 88.2482 170.969C86.9139 169.057 85.0882 167.168 84.1026 164.912C77.1516 149.001 70.3611 133.019 63.5439 117.05C58.6334 105.546 53.671 94.0635 48.9708 82.4746C48.2856 80.7851 48.1295 77.9655 49.0844 76.6629C64.5838 55.5227 80.3454 34.5751 95.9331 13.4991C98.8757 9.52035 101.324 5.17577 104 1C110.688 1 117.375 1 124.247 1.36813C128.705 2.49214 132.955 3.44609 137.258 3.95971C144.59 4.83507 151.97 5.31424 159.305 6.17504C172.296 7.6997 185.251 9.55256 198.26 10.8937C201.772 11.2558 203.904 12.1854 205.309 15.589C208.654 23.6902 212.453 31.6026 215.908 39.6602C221.721 53.2175 227.322 66.866 233.211 80.3897C234.67 83.7417 236.137 88.3333 238.896 89.6579C249.779 94.8838 258.356 101.748 261.414 113.741C264.819 114.191 267.891 114.681 270.981 114.987C278.334 115.715 285.71 116.227 293.05 117.064C303.6 118.267 314.119 119.745 324.666 120.986C334.098 122.095 343.573 122.878 352.974 124.197C354.884 124.465 357.362 126.084 358.187 127.764C362.05 135.628 365.519 143.692 368.957 151.757C376.722 169.968 384.36 188.233 392.157 206.43C392.614 207.497 394.03 208.153 395 209ZM35.7245 266.48C33.1224 268.813 33.771 271.276 35.013 274.121C46.0671 299.445 57.0828 324.786 67.9005 350.212C69.378 353.684 71.4184 354.719 74.9649 355.106C102.111 358.071 129.245 361.167 156.349 364.497C160.004 364.947 162.071 364.204 164.229 361.247C177.487 343.081 190.949 325.064 204.327 306.986C205.275 305.704 206.097 304.329 207.041 302.901C205.571 301.873 204.503 301.089 203.398 300.36C166.711 276.14 130.05 251.88 93.2933 227.766C88.6358 224.71 85.7545 220.817 84.9174 215.415C84.2946 211.396 83.8878 207.343 83.2622 202.321C67.213 223.961 51.6775 244.908 35.7245 266.48ZM106.451 229.098C113.881 233.855 121.308 238.616 128.74 243.369C154.962 260.143 181.173 276.932 207.415 293.674C215.425 298.784 216.526 298.516 221.566 290.801C249.338 248.296 277.106 205.788 304.87 163.278C309.386 156.363 309.218 155.734 301.932 151.5C284.09 141.131 266.109 130.992 248.466 120.294C239.93 115.118 231.922 112.256 223.102 120.475C223.102 118.809 223.002 118.009 223.117 117.243C224.67 106.954 217.713 100.057 207.514 102.283C205.386 102.747 203.714 105.296 201.831 106.884C203.627 108.545 205.165 111.087 207.268 111.705C214.173 113.737 214.889 113.945 213.792 121.136C213.4 123.708 211.514 127.148 209.39 128.07C206.945 129.131 203.276 128.408 200.518 127.41C197.914 126.469 196.902 124.097 199.584 121.567C202.754 118.576 201.311 115.832 198.69 113.498C195.261 110.445 190.058 109.981 186.899 113.501C181.858 119.119 176.941 125.1 173.347 131.679C170.805 136.334 170.537 142.23 169.254 147.572C169.771 147.979 170.288 148.386 170.805 148.793C179.095 147.002 187.385 145.21 196.956 143.142C186.072 153.338 176.082 162.697 165.393 172.709C167.099 172.709 167.703 172.64 168.287 172.719C176.939 173.893 185.914 174.07 194.1 176.701C198.208 178.021 201.113 183.645 204.05 187.695C204.899 188.866 203.82 191.333 203.906 193.193C203.978 194.742 204.461 196.272 204.586 196.911C212.436 195.96 216.011 201.971 221.808 204.489C219.263 207.815 217.384 210.792 214.943 213.2C213.978 214.153 211.394 214.574 210.187 213.967C206.488 212.105 203.239 209.349 199.536 207.498C197.403 206.432 193.206 205.302 192.561 206.164C189.429 210.35 186.229 208.077 183.409 206.733C179.68 204.955 176.513 201.995 172.778 200.235C162.637 195.455 152.249 191.394 140.645 194.054C139.038 194.422 137.157 194.654 135.972 195.635C124.227 205.366 112.601 215.242 100.675 225.301C102.805 226.713 104.324 227.72 106.451 229.098ZM353.675 263.171C364.686 248.322 375.609 233.407 386.777 218.678C389.089 215.628 389.401 213.194 387.852 209.676C376.923 184.854 366.083 159.989 355.554 134.994C353.765 130.748 351.296 129.431 347.079 128.981C327.878 126.934 308.709 124.592 289.525 122.393C280.498 121.359 271.461 120.41 262.429 119.423C262.036 119.948 261.643 120.474 261.25 120.999C262.612 122.594 263.665 124.753 265.385 125.695C278.811 133.048 292.403 140.093 305.863 147.384C313.873 151.723 314.966 156.366 310.149 164.134C309.273 165.547 308.279 166.888 307.362 168.278C291.048 193.012 274.635 217.681 258.483 242.521C252.772 251.304 247.628 260.46 242.375 269.533C240.174 273.333 242.053 277.62 246.062 278.094C274.496 281.459 302.933 284.797 331.395 287.904C333.211 288.103 335.895 286.81 337.071 285.332C342.668 278.301 347.883 270.965 353.675 263.171ZM163.618 47.4201C167.444 39.1478 170.913 30.6289 178.675 25.1022C187.14 29.9254 193.807 42.7283 193.598 54.0564C189.031 47.3374 184.731 41.0103 180.431 34.6832C179.721 34.8147 179.012 34.9462 178.302 35.0777C177.322 40.2063 176.343 45.3349 175.646 48.9835C184.816 54.1781 192.531 58.5485 201.217 63.4693C195.817 64.7867 191.447 64.7436 188.735 66.8427C186.278 68.7451 185.628 72.9828 183.951 76.7006C184.359 76.7006 183.431 76.7006 181.836 76.7006C182.855 81.4095 183.808 85.8168 184.943 91.0617C187.259 87.4303 188.84 84.7357 190.662 82.2152C191.282 81.3563 192.509 80.9353 193.459 80.3142C195.688 83.9806 197.624 80.2438 199.67 80.0003C201.796 79.7474 203.844 78.8438 205.97 78.5908C214.694 77.5526 218.292 80.4438 219.199 89.0671C219.605 92.921 219.941 96.7821 220.309 100.64C221.639 99.1021 222.688 97.4373 222.678 95.7787C222.648 90.6465 224.119 87.3242 230.565 88.6295C230.108 87.1058 229.922 86.1475 229.544 85.2723C220.106 63.4345 210.725 41.571 201.046 19.8403C200.271 18.0993 197.524 16.4161 195.513 16.1695C167.927 12.7859 140.3 9.73225 112.71 6.37521C109.398 5.97214 107.594 6.81948 105.687 9.43368C94.4012 24.9013 82.9279 40.2319 71.5434 55.6276C70.7268 56.7319 70.1141 57.9871 69.9568 58.2506C83.4602 60.9475 96.7458 63.7079 110.09 66.1453C111.993 66.4929 114.638 65.8655 116.166 64.6864C126.823 56.459 138.594 51.1312 152.065 49.7088C155.779 49.3165 159.465 48.6464 163.618 47.4201ZM95.4248 97.054C97.0315 93.4068 98.8006 89.8183 100.151 86.0787C100.588 84.8698 100.444 82.4527 99.6855 81.9683C93.6298 78.1033 87.3624 74.5701 81.1598 70.9352C80.6985 71.4108 80.2373 71.8864 79.776 72.362C79.971 86.7488 84.9224 100.213 88.6523 113.951C76.2633 98.7434 64.457 83.3633 67.6218 61.7182C63.2988 66.7513 59.8095 71.8139 55.9175 76.5451C53.7693 79.1565 53.8743 81.3538 55.1376 84.2469C66.2547 109.707 77.2455 135.222 88.3124 160.704C88.9817 162.245 89.9808 163.643 91.1994 165.753C93.9192 161.829 96.066 158.731 98.4118 155.346C95.656 151.769 92.9025 148.196 90.1491 144.622C90.4593 144.169 90.7695 143.715 91.0797 143.262C96.2534 145.297 101.427 147.333 106.788 149.442C107.818 147.189 108.97 144.669 110.46 141.41C115.183 144.107 119.516 146.582 124.322 149.328C126.595 133.087 132.036 118.851 147.708 110.797C146.028 109.741 144.944 109.06 143.697 108.276C147.411 102.279 153.409 100.958 160.353 98.3497C158.718 97.6671 157.083 96.9845 155.448 96.3019C155.73 95.7493 156.011 95.1967 156.293 94.6441C162.738 94.3176 169.184 93.9911 176.523 93.6193C169.344 87.3947 162.112 84.3613 153.156 85.1467C153.286 86.1642 153.394 87.019 153.533 88.1165C141.353 88.0911 131.179 93.3915 121.415 100.336C124.934 100.336 128.454 100.336 131.973 100.336C132.093 100.727 132.212 101.117 132.332 101.507C114.588 104.182 101.026 113.479 90.7848 128.035C90.2453 127.678 89.7057 127.321 89.1662 126.964C91.1651 117.245 93.1639 107.526 95.4248 97.054Z" fill="#0B1E3F"/>
<path d="M248.469 371C247.886 370.404 247.946 369.408 247.631 369.27C239.008 365.509 235.423 358.218 234.342 349.564C233.211 340.514 233.794 331.56 238.315 323.283C244.222 312.468 259.282 310.043 267.452 311.276C271.914 311.949 276.294 313.155 281 314.184C281 317.382 281.163 320.369 280.952 323.328C280.757 326.071 280.161 328.784 279.706 331.746C277.045 331.746 274.437 331.746 271.417 331.746C270.665 329.225 270.216 326.296 268.921 323.806C267.783 321.617 266.011 318.835 263.962 318.244C260.32 317.194 256.171 317.781 254.086 321.826C250.223 329.322 249.547 337.45 250.404 345.667C250.82 349.652 251.916 353.585 252.924 357.485C254.179 362.341 257.45 365.101 262.488 364.929C267.36 364.763 269.557 361.706 270.11 356.956C270.909 350.102 276.176 352.21 280.303 352.102C282.554 362.037 281.313 366.556 275.659 370.721C266.979 371 257.958 371 248.469 371Z" fill="#0B1E3F"/>
<path d="M35.9333 266.167C51.6775 244.908 67.2131 223.961 83.2623 202.321C83.8879 207.343 84.2947 211.396 84.9175 215.415C85.7545 220.817 88.6359 224.71 93.2934 227.766C130.05 251.88 166.711 276.14 203.398 300.36C204.503 301.089 205.571 301.873 207.042 302.901C206.097 304.329 205.275 305.704 204.327 306.986C190.949 325.064 177.487 343.081 164.229 361.247C162.071 364.204 160.004 364.947 156.349 364.497C129.245 361.167 102.112 358.071 74.965 355.106C71.4185 354.719 69.3781 353.684 67.9005 350.212C57.0829 324.786 46.0672 299.445 35.0131 274.121C33.7711 271.276 33.1225 268.813 35.9333 266.167Z" fill="#F5F6FA"/>
<path d="M106.148 228.912C104.324 227.72 102.805 226.713 100.675 225.301C112.601 215.242 124.227 205.366 135.972 195.635C137.157 194.654 139.038 194.422 140.645 194.054C152.249 191.394 162.637 195.455 172.778 200.235C176.513 201.995 179.68 204.955 183.409 206.733C186.229 208.077 189.429 210.35 192.561 206.164C193.206 205.302 197.403 206.432 199.536 207.498C203.239 209.349 206.488 212.105 210.187 213.967C211.394 214.574 213.978 214.153 214.943 213.2C217.384 210.792 219.263 207.815 221.808 204.489C216.011 201.971 212.436 195.96 204.586 196.911C204.461 196.272 203.978 194.742 203.906 193.193C203.82 191.333 204.899 188.866 204.05 187.695C201.113 183.645 198.208 178.021 194.1 176.701C185.914 174.07 176.939 173.893 168.287 172.719C167.703 172.64 167.099 172.709 165.393 172.709C176.082 162.697 186.072 153.338 196.956 143.142C187.385 145.21 179.095 147.002 170.805 148.793C170.288 148.386 169.771 147.979 169.254 147.572C170.537 142.23 170.805 136.334 173.347 131.679C176.941 125.1 181.858 119.119 186.9 113.501C190.058 109.981 195.261 110.445 198.69 113.498C201.311 115.832 202.754 118.576 199.584 121.567C196.902 124.097 197.914 126.469 200.518 127.41C203.276 128.408 206.945 129.131 209.39 128.07C211.514 127.148 213.4 123.708 213.792 121.136C214.889 113.945 214.173 113.737 207.268 111.705C205.165 111.087 203.628 108.545 201.831 106.884C203.714 105.296 205.386 102.747 207.514 102.283C217.713 100.057 224.67 106.954 223.117 117.243C223.002 118.009 223.102 118.809 223.102 120.475C231.922 112.256 239.93 115.118 248.466 120.294C266.109 130.992 284.09 141.131 301.932 151.5C309.218 155.734 309.386 156.363 304.87 163.278C277.106 205.788 249.338 248.296 221.567 290.801C216.526 298.516 215.425 298.784 207.415 293.674C181.173 276.932 154.962 260.143 128.74 243.369C121.308 238.616 113.881 233.855 106.148 228.912ZM204.019 227.563C205.675 225.38 207.331 223.197 209.2 220.733C204.153 217.531 199.734 214.612 195.172 211.936C194.311 211.431 192.371 211.401 191.798 211.993C188.499 215.404 185.461 219.069 181.866 223.184C187.872 227.001 193.225 230.404 198.852 233.98C200.689 231.699 202.127 229.913 204.019 227.563ZM192.151 239.933C192.145 239.328 192.381 238.362 192.098 238.173C187.555 235.132 182.979 232.136 178.307 229.299C177.734 228.951 176.235 229.267 175.733 229.805C172.494 233.281 169.414 236.904 165.982 240.82C167.836 242.14 169.103 243.153 170.475 243.997C174.418 246.423 178.865 251.173 182.249 250.521C185.937 249.811 188.656 244.066 192.151 239.933ZM220.546 246.772C224.079 242.854 227.613 238.937 231.525 234.599C226.225 231.256 221.957 228.443 217.543 225.881C216.677 225.378 214.736 225.352 214.161 225.947C210.899 229.321 207.902 232.952 204.551 236.797C210.14 240.327 215.019 243.41 220.546 246.772ZM209.914 263.457C212.328 260.327 214.743 257.197 217.516 253.601C211.993 250.127 206.891 246.919 201.642 243.618C197.903 247.927 194.588 251.747 190.916 255.979C196.219 259.359 200.738 262.425 205.481 265.094C206.336 265.574 208.111 264.416 209.914 263.457ZM239.358 215.773C227.069 205.791 226.412 205.826 217.628 216.998C217.455 217.218 217.485 217.598 217.326 218.353C221.762 221.178 226.322 224.083 231.329 227.271C234.173 223.498 236.838 219.963 239.358 215.773ZM212.72 189.391C213.008 190.569 212.904 192.3 213.651 192.832C217.27 195.404 221.117 197.654 225.264 200.257C228.135 196.608 230.834 193.177 233.903 189.275C229.07 186.223 224.807 183.53 220.339 180.708C217.752 183.636 215.461 186.229 212.72 189.391ZM236.745 194.994C234.704 197.371 232.664 199.749 230.19 202.631C235.061 205.729 239.486 208.544 244.304 211.608C247.272 207.855 249.985 204.426 253.03 200.577C248.682 197.832 245.138 195.351 241.334 193.367C240.4 192.88 238.62 194.015 236.745 194.994ZM224.219 177.624C228.189 180.584 232.158 183.544 236.368 186.683C239.332 182.899 241.742 179.823 244.265 176.604C243.344 175.804 242.779 175.216 242.124 174.758C232.268 167.872 232.265 167.876 224.219 177.624ZM252.599 194.176C254.129 194.098 256.256 194.629 257.077 193.826C259.387 191.566 261.16 188.756 263.394 185.838C259.058 183.1 255.192 180.658 251.004 178.013C248.058 181.383 245.412 184.408 242.505 187.732C246.105 190.045 249.025 191.92 252.599 194.176ZM271.685 173.871C271.371 172.811 271.392 171.294 270.682 170.773C267.914 168.742 264.914 167.026 261.706 165.008C259.157 167.948 256.825 170.637 254.028 173.863C258.147 176.465 261.826 178.791 265.772 181.284C267.748 178.8 269.478 176.624 271.685 173.871ZM244.08 158.072C240.992 160.301 237.904 162.53 233.977 165.366C238.998 168.557 242.693 170.905 246.623 173.402C249.106 170.218 251.23 167.495 253.713 164.31C250.508 162.209 247.629 160.322 244.08 158.072ZM278.868 164.278C279.657 163.087 280.447 161.897 281.459 160.373C277.876 158.138 274.685 156.148 271.165 153.953C268.756 156.798 266.588 159.358 264.154 162.233C268.189 164.75 271.514 166.825 274.963 168.977C276.305 167.369 277.362 166.102 278.868 164.278ZM249.115 149.321C247.876 150.801 246.638 152.281 245.033 154.199C248.856 156.621 252.237 158.763 255.946 161.113C258.243 158.102 260.261 155.457 262.46 152.574C259.551 150.707 257.097 149.347 254.893 147.66C252.525 145.846 251.036 146.811 249.115 149.321ZM279.076 144.521C277.26 146.634 275.444 148.747 273.212 151.344C276.768 153.639 279.891 155.655 283.361 157.895C285.555 155.029 287.418 152.595 289.695 149.62C285.996 147.603 282.85 145.888 279.076 144.521ZM257.815 142.98C260.822 144.919 263.83 146.859 267.078 148.952C269.33 146.01 271.182 143.591 273.239 140.905C269.695 138.666 266.671 136.756 263.28 134.613C261.118 137.486 259.25 139.968 257.815 142.98Z" fill="#F5F6FA"/>
<path d="M353.455 263.454C347.883 270.965 342.668 278.301 337.071 285.332C335.894 286.81 333.211 288.103 331.394 287.904C302.933 284.797 274.496 281.459 246.062 278.094C242.053 277.62 240.174 273.333 242.374 269.533C247.627 260.46 252.772 251.304 258.483 242.521C274.635 217.681 291.048 193.012 307.362 168.278C308.279 166.888 309.273 165.547 310.149 164.134C314.966 156.366 313.873 151.723 305.863 147.384C292.403 140.093 278.811 133.048 265.385 125.695C263.665 124.753 262.612 122.594 261.25 120.999C261.643 120.474 262.036 119.948 262.429 119.423C271.461 120.41 280.498 121.359 289.524 122.393C308.709 124.592 327.878 126.934 347.079 128.981C351.296 129.431 353.765 130.748 355.554 134.994C366.082 159.989 376.923 184.854 387.852 209.676C389.401 213.194 389.089 215.628 386.777 218.678C375.609 233.407 364.685 248.322 353.455 263.454Z" fill="#F5F6FA"/>
<path d="M163.391 47.7619C159.465 48.6464 155.779 49.3165 152.064 49.7088C138.594 51.1312 126.823 56.459 116.166 64.6864C114.638 65.8655 111.993 66.4929 110.09 66.1453C96.7458 63.7079 83.4602 60.9475 69.9568 58.2506C70.1141 57.9871 70.7267 56.7319 71.5434 55.6276C82.9279 40.2319 94.4012 24.9013 105.687 9.43368C107.594 6.81949 109.398 5.97214 112.71 6.37521C140.3 9.73225 167.927 12.7859 195.513 16.1695C197.524 16.4161 200.271 18.0993 201.046 19.8403C210.725 41.571 220.106 63.4345 229.544 85.2723C229.922 86.1475 230.108 87.1058 230.565 88.6295C224.119 87.3242 222.648 90.6465 222.678 95.7787C222.688 97.4373 221.639 99.1021 220.308 100.64C219.941 96.7821 219.604 92.921 219.199 89.0671C218.292 80.4438 214.694 77.5526 205.97 78.5908C203.844 78.8438 201.796 79.7474 199.67 80.0003C197.624 80.2438 195.688 83.9806 193.459 80.3142C192.509 80.9353 191.282 81.3563 190.662 82.2152C188.84 84.7357 187.259 87.4303 184.943 91.0617C183.808 85.8168 182.855 81.4095 181.836 76.7006C183.431 76.7006 184.358 76.7006 183.951 76.7006C185.628 72.9828 186.278 68.7451 188.735 66.8427C191.447 64.7436 195.817 64.7867 201.217 63.4693C192.531 58.5485 184.816 54.1781 175.646 48.9835C176.343 45.3349 177.322 40.2063 178.302 35.0777C179.011 34.9462 179.721 34.8147 180.431 34.6832C184.731 41.0103 189.031 47.3374 193.598 54.0564C193.807 42.7283 187.14 29.9254 178.675 25.1022C170.913 30.6289 167.444 39.1478 163.391 47.7619Z" fill="#F5F6FA"/>
<path d="M95.2938 97.4303C93.1639 107.526 91.1651 117.245 89.1662 126.964C89.7057 127.321 90.2453 127.678 90.7848 128.035C101.026 113.479 114.588 104.182 132.332 101.507C132.212 101.117 132.093 100.727 131.973 100.336C128.454 100.336 124.934 100.336 121.415 100.336C131.179 93.3915 141.353 88.0911 153.533 88.1165C153.394 87.019 153.286 86.1642 153.156 85.1467C162.112 84.3613 169.344 87.3947 176.523 93.6193C169.184 93.9911 162.738 94.3176 156.293 94.6441C156.011 95.1967 155.73 95.7493 155.448 96.3019C157.083 96.9845 158.718 97.6671 160.353 98.3497C153.409 100.958 147.411 102.279 143.697 108.276C144.944 109.06 146.028 109.741 147.708 110.797C132.036 118.851 126.595 133.087 124.322 149.328C119.516 146.582 115.183 144.107 110.46 141.41C108.97 144.669 107.818 147.189 106.788 149.442C101.427 147.333 96.2534 145.297 91.0798 143.262C90.7695 143.715 90.4593 144.169 90.1491 144.622C92.9025 148.196 95.656 151.769 98.4118 155.346C96.066 158.731 93.9192 161.829 91.1994 165.753C89.9808 163.643 88.9817 162.245 88.3124 160.704C77.2455 135.222 66.2547 109.707 55.1376 84.2469C53.8743 81.3538 53.7693 79.1565 55.9175 76.5451C59.8095 71.8139 63.2988 66.7513 67.6218 61.7182C64.457 83.3633 76.2633 98.7434 88.6523 113.951C84.9224 100.213 79.971 86.7488 79.776 72.362C80.2373 71.8864 80.6985 71.4108 81.1598 70.9352C87.3624 74.5701 93.6298 78.1033 99.6855 81.9683C100.444 82.4527 100.588 84.8698 100.151 86.0787C98.8006 89.8183 97.0315 93.4068 95.2938 97.4303Z" fill="#F5F6FA"/>
<path d="M52 184.825C51.6241 188.039 51.2482 190.78 50.8411 193.749C35.6213 193.749 20.5332 193.749 5.22392 193.749C5.22392 191.97 5.22392 190.364 5.22392 188.518C7.36109 187.905 9.62499 187.257 11.8946 186.607C11.8946 172.472 11.8946 158.659 11.8946 144.469C9.71587 143.813 7.46099 143.135 5.17188 142.446C5.17188 140.419 5.17188 138.472 5.17188 136.262C15.4154 136.262 25.4888 136.262 35.7813 136.262C35.7813 138.392 35.7813 140.331 35.7813 142.535C33.0471 143.114 30.2317 143.71 27.2526 144.341C27.2526 158.777 27.2526 173.195 27.2526 187.583C39.0524 188.953 39.8174 188.306 44.3685 173.202C46.6088 173.202 48.9126 173.202 52 173.202C52 176.868 52 180.61 52 184.825Z" fill="#0B1E3F"/>
<path d="M300.963 46.0031C297.181 46.9236 295.829 44.9857 295.082 42.2137C292.622 33.0837 292.358 32.8054 286.172 33.0005C281.022 33.1629 276.669 36.8323 276.199 43.2223C275.554 52.006 275.475 60.9191 276.21 69.6882C276.788 76.5756 284.62 80.34 290.867 77.5091C291.802 77.0856 292.843 75.7185 292.897 74.7362C293.124 70.6267 292.993 66.4975 292.993 62.1732C290.911 62.0623 289.293 61.9761 287.34 61.8721C287.34 59.7378 287.34 57.6711 287.34 55.2992C294.999 55.2992 302.73 55.2992 310.732 55.2992C310.732 57.3035 310.732 59.2324 310.732 61.1612C310.345 61.0098 309.959 60.8583 309.572 60.7068C308.715 62.5963 307.243 64.446 307.118 66.3828C306.775 71.6867 307.08 77.0295 306.934 82.3515C306.901 83.5231 306.344 85.2502 305.506 85.6633C304.728 86.0472 302.963 85.3294 302.137 84.5568C299.251 81.8553 297.166 81.6929 293.101 83.6673C281.013 89.5384 263.733 86.9144 259.308 68.465C256.822 58.1028 257.205 47.8009 262.393 38.0052C267.768 27.857 283.181 24.9927 291.631 26.3115C295 26.8374 298.374 27.3684 301.711 28.0636C304.564 28.6581 306.444 30.0539 306.058 33.5104C305.764 36.1405 305.825 38.8442 306.042 41.4893C306.333 45.0356 304.841 46.4338 300.963 46.0031Z" fill="#0B1E3F"/>
<path d="M203.792 227.845C202.127 229.913 200.689 231.699 198.852 233.98C193.225 230.404 187.872 227.001 181.866 223.184C185.461 219.069 188.499 215.404 191.798 211.993C192.371 211.401 194.311 211.431 195.172 211.936C199.734 214.612 204.153 217.531 209.2 220.733C207.331 223.197 205.675 225.38 203.792 227.845Z" fill="#0B1E3F"/>
<path d="M191.974 240.224C188.655 244.066 185.937 249.811 182.249 250.521C178.865 251.173 174.418 246.423 170.475 243.997C169.103 243.153 167.836 242.139 165.982 240.82C169.414 236.904 172.494 233.281 175.733 229.805C176.234 229.267 177.734 228.951 178.307 229.299C182.979 232.136 187.554 235.132 192.098 238.173C192.381 238.362 192.145 239.328 191.974 240.224Z" fill="#0B1E3F"/>
<path d="M220.222 246.632C215.019 243.41 210.14 240.327 204.551 236.797C207.902 232.952 210.899 229.321 214.161 225.947C214.736 225.352 216.677 225.378 217.543 225.881C221.957 228.443 226.225 231.256 231.525 234.599C227.613 238.937 224.079 242.854 220.222 246.632Z" fill="#0B1E3F"/>
<path d="M209.688 263.735C208.111 264.416 206.336 265.574 205.481 265.094C200.739 262.425 196.219 259.359 190.916 255.979C194.589 251.747 197.903 247.926 201.642 243.618C206.891 246.919 211.993 250.127 217.516 253.601C214.743 257.197 212.328 260.327 209.688 263.735Z" fill="#0B1E3F"/>
<path d="M239.431 216.101C236.838 219.963 234.173 223.498 231.329 227.271C226.322 224.083 221.762 221.178 217.326 218.353C217.485 217.598 217.455 217.218 217.628 216.998C226.412 205.826 227.069 205.791 239.431 216.101Z" fill="#0B1E3F"/>
<path d="M212.945 189.106C215.461 186.228 217.752 183.636 220.339 180.708C224.807 183.53 229.07 186.223 233.904 189.275C230.834 193.177 228.135 196.608 225.264 200.257C221.117 197.654 217.27 195.404 213.652 192.832C212.904 192.3 213.008 190.569 212.945 189.106Z" fill="#0B1E3F"/>
<path d="M236.987 194.699C238.62 194.015 240.401 192.88 241.335 193.367C245.138 195.351 248.683 197.832 253.03 200.577C249.985 204.426 247.272 207.855 244.304 211.608C239.486 208.544 235.061 205.729 230.19 202.631C232.664 199.749 234.705 197.371 236.987 194.699Z" fill="#0B1E3F"/>
<path d="M224.376 177.309C232.265 167.876 232.268 167.872 242.124 174.758C242.779 175.216 243.344 175.804 244.265 176.604C241.743 179.823 239.332 182.899 236.368 186.683C232.159 183.544 228.189 180.584 224.376 177.309Z" fill="#0B1E3F"/>
<path d="M252.272 193.985C249.025 191.92 246.105 190.045 242.505 187.732C245.412 184.408 248.058 181.383 251.004 178.013C255.192 180.658 259.058 183.1 263.394 185.838C261.16 188.756 259.387 191.566 257.077 193.826C256.256 194.629 254.129 194.098 252.272 193.985Z" fill="#0B1E3F"/>
<path d="M271.447 174.159C269.478 176.624 267.748 178.8 265.772 181.284C261.826 178.791 258.147 176.465 254.028 173.863C256.825 170.637 259.157 167.948 261.706 165.008C264.914 167.026 267.914 168.742 270.682 170.773C271.392 171.294 271.371 172.811 271.447 174.159Z" fill="#0B1E3F"/>
<path d="M244.415 158.253C247.629 160.322 250.508 162.209 253.713 164.31C251.23 167.495 249.106 170.218 246.623 173.402C242.693 170.905 238.998 168.557 233.977 165.366C237.905 162.53 240.992 160.301 244.415 158.253Z" fill="#0B1E3F"/>
<path d="M278.643 164.557C277.362 166.102 276.305 167.369 274.963 168.977C271.514 166.825 268.189 164.75 264.154 162.233C266.588 159.358 268.756 156.798 271.165 153.953C274.685 156.148 277.876 158.138 281.459 160.373C280.447 161.897 279.657 163.087 278.643 164.557Z" fill="#0B1E3F"/>
<path d="M249.372 149.056C251.036 146.811 252.525 145.846 254.893 147.66C257.097 149.347 259.551 150.707 262.46 152.574C260.261 155.457 258.242 158.102 255.945 161.113C252.237 158.763 248.856 156.621 245.033 154.199C246.637 152.281 247.876 150.801 249.372 149.056Z" fill="#0B1E3F"/>
<path d="M279.39 144.347C282.85 145.888 285.996 147.603 289.695 149.62C287.418 152.595 285.555 155.029 283.361 157.895C279.891 155.655 276.768 153.639 273.212 151.344C275.444 148.747 277.26 146.634 279.39 144.347Z" fill="#0B1E3F"/>
<path d="M257.598 142.715C259.25 139.968 261.118 137.486 263.28 134.613C266.671 136.756 269.694 138.666 273.239 140.905C271.182 143.591 269.33 146.01 267.077 148.952C263.83 146.859 260.822 144.919 257.598 142.715Z" fill="#0B1E3F"/>
</g>
<defs>
<clipPath id="clip0_6_4">
<rect width="394" height="370" fill="white"/>
</clipPath>
</defs>
</svg>
